<svg xmlns="http://www.w3.org/2000/svg" width="34" height="34" viewBox="0 0 34 34" fill="none">
<path fill-rule="evenodd" clip-rule="evenodd" d="M18.0756 16.078C18.4925 16.5644 18.5272 17.2627 18.1798 17.7843L18.0756 17.9219L11.5784 25.5H24.0833V22.6667C24.0833 21.8843 24.7176 21.25 25.5 21.25C26.2265 21.25 26.8253 21.7969 26.9071 22.5014L26.9167 22.6667V25.5C26.9167 26.9937 25.7608 28.2174 24.2948 28.3256L24.0833 28.3333H8.5C7.34229 28.3333 6.69454 27.0344 7.32974 26.1172L7.42439 25.9947L15.1328 17L7.42439 8.00528C6.67096 7.12628 7.23561 5.78916 8.34536 5.67455L8.5 5.66666H24.0833C25.577 5.66666 26.8007 6.82248 26.9089 8.28854L26.9167 8.49999V11.3333C26.9167 12.1157 26.2824 12.75 25.5 12.75C24.7735 12.75 24.1747 12.2031 24.0929 11.4985L24.0833 11.3333V8.49999H11.5798L18.0756 16.078Z" fill="white"/>
</svg>