<svg xmlns="http://www.w3.org/2000/svg" width="34" height="34" viewBox="0 0 34 34" fill="none">
<path fill-rule="evenodd" clip-rule="evenodd" d="M20.555 6.17468C19.7875 4.98796 18.4453 4.25 16.9958 4.25C15.4497 4.25 14.0255 5.08964 13.277 6.44248L3.23262 23.7721L3.14577 23.9494L3.04476 24.2249C2.64995 25.4289 2.81203 26.7529 3.49778 27.8305C4.23628 28.991 5.49079 29.7223 6.86452 29.7931L7.03001 29.7921L7.09329 29.795H26.9266L27.2087 29.7838C28.517 29.6888 29.7083 29.0006 30.439 27.9085C31.2219 26.7383 31.3746 25.2564 30.8466 23.9512L30.759 23.7721L20.7006 6.41793L20.555 6.17468ZM15.8377 7.68757C16.1117 7.30447 16.5377 7.08333 16.9958 7.08333L17.1658 7.09355C17.6139 7.14764 18.0136 7.41332 18.2354 7.81416L28.2441 25.0849L28.2754 25.1794C28.38 25.5707 28.3125 25.9916 28.0842 26.3329C27.8232 26.7229 27.386 26.9584 26.9167 26.9617L7.09329 26.9617L7.02242 26.9648L6.84081 26.9445C6.45064 26.8767 6.10355 26.6478 5.88815 26.3093L5.80536 26.1601C5.65885 25.8539 5.6272 25.5049 5.71622 25.1773L5.74742 25.0835L15.7423 7.83871L15.8377 7.68757ZM17.01 12.795C17.7365 12.795 18.3353 13.3419 18.4171 14.0464L18.4266 14.2117V17.045C18.4266 17.8274 17.7924 18.4617 17.01 18.4617C16.2834 18.4617 15.6847 17.9148 15.6028 17.2102L15.5933 17.045V14.2117C15.5933 13.4292 16.2276 12.795 17.01 12.795ZM18.4408 22.7117C18.4408 21.9292 17.8065 21.295 17.0241 21.295L16.8447 21.3045C16.1402 21.3864 15.5933 21.9851 15.5933 22.7117C15.5933 23.4941 16.2276 24.1283 17.01 24.1283L17.1893 24.1188C17.8939 24.037 18.4408 23.4382 18.4408 22.7117Z" fill="white"/>
</svg>