<svg xmlns="http://www.w3.org/2000/svg" width="24" height="24" viewBox="0 0 24 24" fill="none">
<path fill-rule="evenodd" clip-rule="evenodd" d="M11.991 3.03974C16.5196 3.02624 20.353 6.3798 20.9415 10.87C21.0133 11.4176 20.6276 11.9197 20.08 11.9915C19.5324 12.0633 19.0303 11.6776 18.9585 11.13C18.5007 7.63756 15.5192 5.02924 11.9969 5.03974C8.47465 5.0503 5.5088 7.67641 5.07192 11.1715C4.63503 14.6666 6.8632 17.9419 10.2745 18.8192C13.1732 19.5646 16.1589 18.3811 17.7904 16.001L14.95 16C14.4372 16 14.0145 15.614 13.9567 15.1166L13.95 15C13.95 14.4872 14.336 14.0645 14.8334 14.0067L14.95 14H19.95C20.4628 14 20.8855 14.386 20.9433 14.8834L20.95 15V20C20.95 20.5523 20.5023 21 19.95 21C19.4372 21 19.0145 20.614 18.9567 20.1166L18.95 20L18.9507 17.781C16.7795 20.4028 13.2299 21.6442 9.7764 20.7562C5.39044 19.6283 2.52565 15.4171 3.08736 10.9234C3.64907 6.42975 7.4623 3.05333 11.991 3.03974Z" fill="#542E97"/>
</svg>